<svg version="1.2" baseProfile="tiny-ps" xmlns="http://www.w3.org/2000/svg" viewBox="0 0 1100 260" width="1100" height="260">
	<title>New Project</title>
	<style>
		tspan { white-space:pre }
		.shp0 { fill: #ffffff } 
	</style>
	<path class="shp0" d="M974.5 204.05L959.5 186.61L1037.13 119.86L1052.12 137.3L974.5 204.05Z" />
	<path fill="#ffffff" aria-label="bitzero"  d="M49.74 28.02L49.74 108.05Q57.71 97.6 68.03 91.96Q78.48 86.19 90.99 86.19Q110.38 86.19 122.34 95.54Q134.3 104.89 139.8 121.94Q145.3 138.85 145.3 161.54Q145.3 183.4 138.7 200.59Q132.1 217.64 119.31 227.4Q106.66 237.16 87.96 237.16Q62.8 237.16 48.5 219.01L46.85 234L26.64 234L26.64 30.91L49.74 28.02ZM82.46 218.46Q100.61 218.46 110.38 204.44Q120.14 190.41 120.14 161.4Q120.14 142.43 116.29 129.91Q112.44 117.26 104.74 111.07Q97.18 104.75 86.04 104.75Q73.94 104.75 64.73 112.04Q55.65 119.19 49.74 127.99L49.74 199.76Q55.38 208.29 63.9 213.38Q72.56 218.46 82.46 218.46ZM187.51 89.21L253.93 89.21L253.93 215.71L294.76 215.71L294.76 234L186.14 234L186.14 215.71L230.82 215.71L230.82 107.5L187.51 107.5L187.51 89.21ZM235.5 21.42Q243.2 21.42 247.74 26.1Q252.41 30.77 252.41 37.51Q252.41 44.52 247.74 49.34Q243.2 54.01 235.5 54.01Q228.21 54.01 223.54 49.34Q218.86 44.52 218.86 37.51Q218.86 30.77 223.54 26.1Q228.21 21.42 235.5 21.42ZM440.65 211.04L449.59 226.71Q442.16 231.66 431.58 234.41Q420.99 237.16 410.81 237.16Q387.44 237.16 374.79 224.93Q362.14 212.69 362.14 193.44L362.14 107.09L328.86 107.09L328.86 89.21L362.14 89.21L362.14 56.35L385.24 53.6L385.24 89.21L435.29 89.21L432.54 107.09L385.24 107.09L385.24 193.16Q385.24 205.26 391.56 211.59Q398.02 217.91 412.88 217.91Q420.99 217.91 427.86 215.99Q434.74 214.06 440.65 211.04ZM601.8 114.92L527.55 205.26L603.04 205.26L599.19 234L483.41 234L483.41 207.46L558.35 117.12L489.6 117.12L489.6 88.39L601.8 88.39L601.8 114.92ZM763.91 172.4L668.49 172.4Q669.73 185.88 674.81 194.26Q679.9 202.65 687.88 206.5Q695.99 210.35 705.75 210.35Q716.2 210.35 725.41 207.05Q734.63 203.75 743.56 197.97L758.96 219.01Q748.79 227.54 734.63 232.9Q720.46 238.26 703.41 238.26Q679.49 238.26 663.26 228.5Q647.04 218.6 638.65 201.28Q630.4 183.95 630.4 161.26Q630.4 139.68 638.51 122.21Q646.63 104.61 662.02 94.44Q677.42 84.13 699.15 84.13Q719.23 84.13 733.94 92.92Q748.65 101.72 756.63 118.22Q764.6 134.72 764.6 157.82Q764.6 161.54 764.46 165.52Q764.33 169.38 763.91 172.4ZM699.29 110.11Q686.23 110.11 677.84 119.46Q669.59 128.81 668.08 148.89L728.58 148.89Q728.3 130.74 721.01 120.42Q713.86 110.11 699.29 110.11ZM878.73 234L792.24 234L792.24 208.43L812.45 208.43L812.45 113.82L792.24 113.82L792.24 88.39L840.77 88.39L847.65 121.66Q855.63 103.1 867.73 93.75Q879.83 84.4 898.11 84.4Q905.13 84.4 910.49 85.5Q915.99 86.46 921.08 88.39L909.8 119.46Q905.67 118.36 901.69 117.81Q897.84 117.26 893.02 117.26Q878.04 117.26 866.9 128.95Q855.76 140.64 849.58 160.57L849.58 208.43L878.73 208.43L878.73 234ZM914.48 145.72L889.73 145.72L889.73 106.54L894.95 88.39L921.08 88.39L914.48 145.72ZM1005.64 84.13Q1027.5 84.13 1042.63 93.61Q1057.89 103.1 1065.72 120.42Q1073.7 137.61 1073.7 160.85Q1073.7 184.5 1065.59 201.96Q1057.61 219.29 1042.35 228.78Q1027.22 238.26 1005.5 238.26Q983.77 238.26 968.51 229.05Q953.25 219.7 945.27 202.38Q937.3 185.05 937.3 161.13Q937.3 138.16 945.27 120.84Q953.39 103.51 968.65 93.89Q983.91 84.13 1005.64 84.13ZM1005.64 112.04Q990.65 112.04 983.23 123.86Q975.8 135.69 975.8 161.13Q975.8 186.7 983.09 198.53Q990.51 210.35 1005.5 210.35Q1020.49 210.35 1027.78 198.53Q1035.2 186.7 1035.2 160.85Q1035.2 135.55 1027.78 123.86Q1020.49 112.04 1005.64 112.04Z" />
</svg>