<svg version="1.2" baseProfile="tiny-ps" xmlns="http://www.w3.org/2000/svg" viewBox="0 0 168 189" width="168" height="189">
	<title>bitzerologodarkblue</title>
	<style>
		tspan { white-space:pre }
		.shp0 { fill: #ffffff } 
		.shp1 { fill: #081a66 } 
	</style>
	<path class="shp0" d="M40 32L127 32L127 156L40 156L40 32Z" />
	<path class="shp1" d="M53.5 137.05L38.5 119.61L116.13 52.86L131.12 70.3L53.5 137.05Z" />
	<path fill="#ffffff" aria-label="o"  d="M84.46 4.06Q109.98 4.06 127.63 15.13Q145.45 26.2 154.6 46.43Q163.91 66.49 163.91 93.61Q163.91 121.22 154.44 141.6Q145.13 161.83 127.31 172.9Q109.66 183.98 84.3 183.98Q58.94 183.98 41.13 173.22Q23.31 162.31 14 142.09Q4.69 121.86 4.69 93.94Q4.69 67.13 14 46.91Q23.47 26.69 41.29 15.45Q59.1 4.06 84.46 4.06ZM84.46 36.64Q66.97 36.64 58.3 50.44Q49.63 64.24 49.63 93.94Q49.63 123.79 58.14 137.59Q66.81 151.39 84.3 151.39Q101.79 151.39 110.3 137.59Q118.97 123.79 118.97 93.61Q118.97 64.08 110.3 50.44Q101.79 36.64 84.46 36.64Z" />
	<path fill="#081a66" aria-label="o"  d="M84.64 17.13Q106.5 17.13 121.63 26.61Q136.89 36.1 144.73 53.42Q152.7 70.61 152.7 93.85Q152.7 117.5 144.59 134.96Q136.61 152.29 121.35 161.78Q106.23 171.26 84.5 171.26Q62.78 171.26 47.51 162.05Q32.25 152.7 24.28 135.38Q16.3 118.05 16.3 94.13Q16.3 71.16 24.28 53.84Q32.39 36.51 47.65 26.89Q62.91 17.13 84.64 17.13ZM84.64 45.04Q69.65 45.04 62.23 56.86Q54.8 68.69 54.8 94.13Q54.8 119.7 62.09 131.53Q69.51 143.35 84.5 143.35Q99.49 143.35 106.78 131.53Q114.2 119.7 114.2 93.85Q114.2 68.55 106.78 56.86Q99.49 45.04 84.64 45.04Z" />
</svg>